<?xml version="1.0" encoding="UTF-8" standalone="no"?>
<!-- Created with Inkscape (http://www.inkscape.org/) -->

<svg
   xmlns:dc="http://purl.org/dc/elements/1.1/"
   xmlns:cc="http://creativecommons.org/ns#"
   xmlns:rdf="http://www.w3.org/1999/02/22-rdf-syntax-ns#"
   xmlns:svg="http://www.w3.org/2000/svg"
   xmlns="http://www.w3.org/2000/svg"
   xmlns:sodipodi="http://sodipodi.sourceforge.net/DTD/sodipodi-0.dtd"
   xmlns:inkscape="http://www.inkscape.org/namespaces/inkscape"
   version="1.1"
   id="svg3732"
   xml:space="preserve"
   width="325.33334"
   height="278.66666"
   viewBox="0 0 325.33334 278.66666"
   sodipodi:docname="moreno-corillo.svg"
   inkscape:version="0.92.4 (5da689c313, 2019-01-14)"><metadata
     id="metadata3738"><rdf:RDF><cc:Work
         rdf:about=""><dc:format>image/svg+xml</dc:format><dc:type
           rdf:resource="http://purl.org/dc/dcmitype/StillImage" /><dc:title></dc:title></cc:Work></rdf:RDF></metadata><defs
     id="defs3736" /><sodipodi:namedview
     pagecolor="#ffffff"
     bordercolor="#666666"
     borderopacity="1"
     objecttolerance="10"
     gridtolerance="10"
     guidetolerance="10"
     inkscape:pageopacity="0"
     inkscape:pageshadow="2"
     inkscape:window-width="1920"
     inkscape:window-height="1007"
     id="namedview3734"
     showgrid="false"
     inkscape:zoom="2.9533494"
     inkscape:cx="106.4593"
     inkscape:cy="139.33333"
     inkscape:window-x="0"
     inkscape:window-y="36"
     inkscape:window-maximized="0"
     inkscape:current-layer="g3740" /><g
     id="g3740"
     inkscape:groupmode="layer"
     inkscape:label="ink_ext_XXXXXX"
     transform="matrix(1.3333333,0,0,-1.3333333,0,278.66667)"><path
       style="fill:#000000"
       d="m 54.442893,14.070475 c 0,0.55 0.648442,1 1.440983,1 0.792541,0 1.719098,-0.45 2.059017,-1 0.339919,-0.55 -0.308524,-1 -1.440983,-1 -1.132459,0 -2.059017,0.45 -2.059017,1 z m 7.630286,1.25 c -0.331637,1.2375 -0.619857,4.725001 -0.640488,7.750001 -0.02063,3.025001 -0.526388,7.300001 -1.123903,9.500001 -0.597516,2.2 -1.258829,6.025001 -1.469584,8.500001 -0.323835,3.80294 0.06503,3.10588 2.510394,-4.5 1.591473,-4.950001 3.671409,-11.700002 4.622081,-15.000002 0.950671,-3.300001 1.943755,-6.562501 2.206845,-7.250001 0.31684,-0.82797 -0.53127,-1.25 -2.512011,-1.25 -2.255785,0 -3.138477,0.55271 -3.593334,2.25 z m 8.369715,-0.68742 c 0,1.62035 -3.439634,12.691082 -5.573087,17.937422 -0.670981,1.65 -1.542409,5.025001 -1.936505,7.500001 -0.394096,2.475 -1.1544,5.04279 -1.689564,5.7062 -0.535163,0.6634 -0.689144,1.66552 -0.342178,2.22692 0.346966,0.5614 0.137404,2.853241 -0.465693,5.092971 -0.603097,2.23973 -0.847561,4.85671 -0.543253,5.8155 0.885886,2.791181 10.46256,6.882741 17.99866,7.689781 5.11672,0.54796 6.91542,1.14378 7.2438,2.39953 0.40677,1.555501 7.82742,4.556671 11.29447,4.567881 0.81766,0.003 1.63139,0.75638 1.80829,1.67497 0.26265,1.3638 -0.2774,1.57574 -2.94423,1.15544 -1.79624,-0.28309 -3.79817,-1.24266 -4.44875,-2.13238 -0.96599,-1.32107 -1.63846,-1.41009 -3.66768,-0.48551 -1.70137,0.7752 -3.79653,0.83743 -6.64513,0.1974 -3.55225,-0.79814 -4.96815,-0.56526 -9.68734,1.59335 -4.231486,1.93552 -5.406272,2.93477 -5.0119,4.26303 0.283312,0.954211 0.825338,3.084921 1.204501,4.734921 0.379159,1.65 1.575679,4.76787 2.658929,6.928611 1.44735,2.887 1.81518,5.05485 1.38732,8.1764 -0.37047,2.702897 -0.17956,4.382017 0.52492,4.616847 0.60893,0.20298 1.10715,2.26109 1.10715,4.57359 0,2.3125 0.31135,4.20456 0.69188,4.20456 1.03941,0 3.03539,9.54613 3.03539,14.51727 0,2.40058 0.45,4.64281 1,4.98273 0.55,0.33992 1,1.95731 1,3.5942 0,3.73174 2.65659,7.9058 5.03168,7.9058 0.99091,0 2.03588,0.5625 2.32216,1.25 0.36919,0.8866 0.97486,0.68567 2.08334,-0.69113 2.33857,-2.90466 1.90312,-3.87693 -1.43718,-3.20887 -2.87362,0.57473 -4.09511,-0.55515 -2,-1.85 0.55,-0.33992 1,-1.71647 1,-3.05902 0,-1.34254 0.20181,-2.44098 0.44848,-2.44098 1.26484,0 5.60589,5.04273 7.54708,8.76699 1.21351,2.32816 2.65908,4.23301 3.21239,4.23301 0.55332,0 0.76004,0.64104 0.45938,1.42453 -2.46305,6.41862 27.801596,7.38361 39.832666,1.27007 2.54824,-1.29488 5.54109,-1.94393 8.24613,-1.7883 3.69481,0.21257 4.36699,-0.0736 5.17707,-2.2043 0.53525,-1.4078 2.06322,-2.73276 3.59479,-3.11716 1.87686,-0.47106 2.48716,-1.12904 2.06577,-2.22716 -0.37108,-0.96701 0.35352,-2.3071 1.90908,-3.53071 1.37894,-1.08467 2.50716,-2.58414 2.50716,-3.33216 0,-0.74802 0.85974,-1.63291 1.91054,-1.96642 2.91888,-0.92642 4.74126,-4.46407 5.42358,-10.52839 0.34036,-3.025 1.03829,-6.92863 1.55096,-8.67473 0.51267,-1.74611 0.70972,-3.39715 0.43788,-3.66899 -0.27184,-0.27184 0.44429,-0.99654 1.59139,-1.61045 1.35992,-0.72781 2.08565,-2.10093 2.08565,-3.94617 0,-1.55647 0.9,-3.974117 2,-5.372537 2.08176,-2.64653 2.53239,-4.8614 1.25,-6.1438 -0.74131,-0.741311 -0.88079,-1.236671 -1.125,-3.995431 -0.15462,-1.74675 -6.92361,-3.01068 -11.15106,-2.08218 -2.52328,0.55421 -2.85793,0.92913 -1.88055,2.10681 0.65394,0.78794 1.9549,1.18953 2.89104,0.89241 0.93613,-0.29712 3.2351,0.12511 5.10882,0.93828 1.87371,0.81317 2.84425,1.49611 2.15675,1.51764 -0.6875,0.0215 -1.25,0.870001 -1.25,1.885501 0,2.39716 -2.87572,8.153637 -4.07324,8.153637 -1.40127,0 -1.1108,4.76434 0.32324,5.30191 0.866,0.32464 0.63561,0.95486 -0.75,2.05153 -1.1,0.87063 -1.6074,1.59726 -1.12756,1.61476 0.47985,0.0175 0.25485,0.79318 -0.5,1.72376 -1.0819,1.33379 -1.09159,1.52296 -0.0457,0.89359 1.00244,-0.60324 1.24685,-0.10025 1,2.05805 -0.21036,1.83926 -0.83208,2.74729 -1.74596,2.54999 -1.15669,-0.24974 -1.18702,-0.0266 -0.16391,1.20619 0.71963,0.86711 0.90921,2.06476 0.44423,2.80642 -0.44617,0.71159 -0.68163,2.08131 -0.52328,3.04381 0.27204,1.65362 -1.24832,2.25829 -4.58782,1.82464 -0.6875,-0.0893 -1.25,0.76855 -1.25,1.90627 0,1.28636 -0.94536,2.42801 -2.5,3.01909 -2.63866,1.00321 -3.21644,2.43918 -1.42656,3.54539 0.66942,0.41372 0.27686,1.22138 -1.04295,2.14581 -1.47513,1.03322 -2.48967,1.17261 -3.34827,0.46003 -0.90037,-0.74724 -1.86533,-0.0978 -3.58594,2.41321 -2.43557,3.55448 -4.50194,4.65628 -3.41362,1.82016 0.49286,-1.28439 0.17907,-1.47549 -1.53139,-0.93261 -2.09217,0.66403 -3.07225,-0.76476 -1.28308,-1.87053 0.47751,-0.29511 1.16313,-2.75994 1.52362,-5.47739 0.36048,-2.71746 1.46412,-5.93953 2.45252,-7.16016 l 1.7971,-2.21932 1.84542,3.8877 c 1.01498,2.13824 2.03316,3.32521 2.26262,2.63771 0.22946,-0.6875 1.5047,-1.25 2.83386,-1.25 3.97936,0 2.44483,-3.8702 -1.75,-4.41364 -1.79353,-0.23235 -1.94266,-1.77056 -0.39992,-4.12508 1.84691,-2.81873 2.2744,-6.65581 1.1398,-10.23062 -0.8938,-2.81612 -2.57321,-1.94917 -2.57321,1.32835 0,1.47992 -0.57823,2.44099 -1.46862,2.44099 -0.89459,0 -1.24363,-0.58629 -0.89301,-1.5 0.40484,-1.05499 -0.0812,-1.50001 -1.63837,-1.50001 -1.71634,0 -2.05204,0.39335 -1.49354,1.75001 0.39625,0.9625 0.95939,2.65 1.25143,3.75 0.29203,1.1 0.97108,2.5625 1.50899,3.25 0.69032,0.88231 0.52482,1.25 -0.56265,1.25 -0.84736,0 -2.32173,0.29972 -3.27639,0.66606 -1.531,0.5875 -1.66766,0.15857 -1.15862,-3.6366 0.33161,-2.47232 0.10364,-5.0608 -0.53589,-6.08486 -0.84093,-1.34655 -0.7871,-2.1749 0.22022,-3.38864 1.22383,-1.47463 1.48037,-1.47326 3.12682,0.0168 2.16464,1.95898 3.92139,1.14999 3.23151,-1.48811 -0.32279,-1.23433 0.1995,-2.28794 1.47166,-2.96877 1.70651,-0.9133 1.94457,-1.99173 1.76811,-8.009687 -0.18679,-6.370071 -0.007,-7.059441 2.13458,-8.205831 2.01288,-1.07726 2.24708,-1.74926 1.6819,-4.82593 -0.36114,-1.96592 -1.15421,-3.905011 -1.76237,-4.309091 -0.60817,-0.40408 0.25661,-0.74158 1.92173,-0.75 1.66513,-0.008 4.025,-0.71399 5.24417,-1.56793 1.21917,-0.85394 4.3568,-1.81325 6.97251,-2.13181 7.21755,-0.87899 41.98341,-14.771572 45.69775,-18.261002 4.95488,-4.65488 12.22882,-24.575222 13.25666,-36.304573 0.55236,-6.303431 0.45768,-6.750001 -1.4311,-6.750001 -1.11242,0 -2.59979,0.69548 -3.30525,1.54551 -0.70546,0.85003 -1.88556,1.31415 -2.62244,1.03138 -1.61392,-0.61931 -1.76022,0.60268 -0.25266,2.11024 0.78285,0.782851 0.78285,1.275201 0,1.759021 -1.68344,1.04043 -1.28946,2.26768 0.91287,2.8436 1.38072,0.36107 2,1.36401 2,3.239081 0,2.19897 -0.26334,2.49751 -1.38322,1.56809 -1.97482,-1.63895 -2.75999,0.91693 -1.56341,5.08918 0.52065,1.81538 0.94663,3.349021 0.94663,3.408091 0,0.0591 -1.575,-0.385571 -3.5,-0.988091 -1.925,-0.60251 -3.5,-1.66037 -3.5,-2.35079 0,-0.69042 -0.708,-1.25531 -1.57332,-1.25531 -2.21544,0 -1.38374,3.21306 1.15996,4.481241 3.71608,1.85266 5.81332,4.5188 4.54907,5.78305 -0.84761,0.84757 -1.13571,0.8163 -1.13571,-0.12335 0,-0.69246 -0.45,-0.9809 -1,-0.64098 -0.55,0.33992 -1.00297,1.82898 -1.00659,3.30902 -0.006,2.57558 -3.07198,8.416181 -4.35706,8.300901 -1.65824,-0.14876 -3.49102,1.22634 -3.94419,2.95925 -0.6301,2.4095 -2.51956,2.55607 -2.33105,0.18083 0.0764,-0.9625 0.92639,-2.073 1.88889,-2.46778 2.14088,-0.87809 2.31198,-2.78222 0.25,-2.78222 -0.84106,0 -1.5,-0.892381 -1.5,-2.031381 0,-1.11727 -0.675,-2.29041 -1.5,-2.60699 -0.825,-0.31659 -1.5,-1.17032 -1.5,-1.89719 0,-0.72687 -0.65915,-1.98073 -1.46477,-2.78635 -0.80562,-0.80562 -2.60595,-3.95966 -4.00074,-7.008971 -2.3219,-5.0762 -2.46757,-6.18257 -1.72571,-13.106661 0.44565,-4.159351 0.44598,-7.562461 7.4e-4,-7.562461 -0.44523,0 -0.80952,2.22344 -0.80952,4.94098 0,2.717541 -0.42567,5.204061 -0.94593,5.525601 -1.2196,0.75376 -3.04253,-5.794711 -2.35015,-8.442381 0.40833,-1.56144 0.0454,-2.0242 -1.58729,-2.0242 -2.37134,0 -2.18628,-1.77028 -2.61336,25.000003 -0.28382,17.790701 -1.22279,26.299032 -3.16536,28.682422 -1.35941,1.6679 -1.43394,1.5377 -0.90494,-1.58101 1.39469,-8.222471 1.85672,-23.101412 0.71735,-23.101412 -0.74225,0 -1.15745,2.21717 -1.17043,6.25 -0.0271,8.417851 -1.5986,18.786682 -3.05313,20.144472 -0.90875,0.84831 -1.02069,-0.40681 -0.4811,-5.39447 0.38676,-3.575001 0.89763,-16.287502 1.13528,-28.250003 0.37547,-18.899692 0.23466,-21.750002 -1.07442,-21.750002 -0.82859,0 -1.50652,0.8632 -1.50652,1.91821 0,1.05502 -0.2751,2.63512 -0.61134,3.511341 -0.44745,1.16604 -0.17937,1.42737 1,0.9748 0.99405,-0.38145 1.61107,-0.0985 1.61063,0.73866 -3.9e-4,0.75109 -1.14563,1.42319 -2.56492,1.50525 -1.41032,0.0815 -2.73189,0.31593 -2.93683,0.52086 -0.20494,0.20494 -0.63203,3.963231 -0.94911,8.351751 -0.38619,5.345191 -0.26496,7.318921 0.36725,5.979131 0.51906,-1.1 0.98906,-3.800001 1.04444,-6.000001 0.0762,-3.02504 0.33189,-3.60428 1.04921,-2.37646 1.66553,2.85084 -3.11462,42.876464 -5.12062,42.876464 -1.13037,0 -1.11097,-2.023661 0.0911,-9.500001 0.53057,-3.300001 1.14725,-9.825001 1.3704,-14.500002 l 0.40572,-8.5 -1.35866,5 c -0.74726,2.75 -1.36734,7.129151 -1.37795,9.731441 -0.0286,7.026911 -2.26281,18.860782 -3.47535,18.408212 -0.57417,-0.21431 -0.98184,-0.7834 -0.90595,-1.26465 0.36301,-2.301871 3.30936,-28.526523 3.7497,-33.375003 l 0.4995,-5.500001 -1.9947,5.000001 c -1.26705,3.17603 -1.82664,6.38091 -1.534,8.78546 0.25339,2.08201 -0.021,5.457011 -0.60979,7.500001 -1.01832,3.53349 -1.10294,3.59269 -1.736,1.21454 -0.36602,-1.375 -0.30883,-3.79397 0.12709,-5.375491 0.50759,-1.84154 0.33931,-3.74059 -0.46799,-5.28138 -1.15856,-2.2112 -1.25698,-1.98637 -1.21619,2.77813 0.0281,3.285221 -0.41346,5.341781 -1.20561,5.614721 -0.6875,0.23688 -1.25,-0.28792 -1.25,-1.16622 0,-1.846481 -1.73944,-5.103281 -4.25,-7.957401 -2.32242,-2.64023 -2.20983,-1.43402 0.33102,3.54646 2.73553,5.362081 1.01687,7.690921 -2.01079,2.72469 -1.13451,-1.86093 -2.06444,-3.74353 -2.06649,-4.18356 -0.002,-0.44003 -4.12256,-6.85871 -9.15666,-14.263751 -5.03411,-7.405031 -8.83464,-13.781972 -8.44563,-14.170982 0.38901,-0.38902 1.02033,-0.24263 1.40292,0.32529 4.37463,6.493721 13.57964,18.358812 13.95312,17.985332 0.44947,-0.44947 -2.69818,-5.35758 -10.79068,-16.825842 -2.57928,-3.65521 -3.97071,-4.75 -6.03703,-4.75 h -2.68521 l 2.47944,10.750001 c 1.36369,5.912501 3.57513,14.071032 4.91431,18.130072 1.33918,4.05904 2.15878,7.656161 1.82134,7.993611 -0.33745,0.33744 -1.81642,-0.766311 -3.2866,-2.452781 -2.97044,-3.40741 -9.51538,-8.4209 -10.99322,-8.4209 -1.16036,0 -16.17987,16.694391 -16.17987,17.984151 0,0.50406 0.72615,1.32284 1.61366,1.81952 1.35822,0.7601 1.41653,1.271401 0.36837,3.229911 -1.21475,2.26977 -1.27994,2.2795 -2.65709,0.39664 -1.89002,-2.58405 -1.98853,-3.202671 -3.81045,-23.930222 -2.349636,-26.731433 -2.033946,-25.500003 -6.537256,-25.500003 -3.62338,0 -3.78071,0.14313 -4.1222,3.75 -0.49163,5.192751 0.0766,8.410262 1.34675,7.625291 0.71788,-0.44367 0.91728,1.301951 0.61929,5.421581 -0.28582,3.9515 -0.0691,6.010761 0.61972,5.889531 1.22097,-0.21487 0.84306,7.43681 -0.548,11.09557 -0.49103,1.29153 -0.89279,3.684331 -0.89279,5.317341 0,2.5775 -0.32475,2.92562 -2.46219,2.63938 -1.3542,-0.18135 -2.72248,-0.59003 -3.04063,-0.90817 -0.31814,-0.31815 0.0773,-3.67266 0.87865,-7.454481 3.08056,-14.537291 3.88637,-19.447171 3.28961,-20.043941 -0.3401,-0.34009 -0.79533,0.009 -1.01163,0.77477 -0.64565,2.28714 -2.73376,12.922301 -3.95493,20.143131 -0.71348,4.218881 -1.62101,6.750001 -2.42021,6.750001 -1.71474,0 -1.62302,-1.38008 0.70598,-10.623371 1.09155,-4.33215 1.95298,-9.226631 1.91428,-10.876631 -0.0387,-1.65 -1.07983,1.53741 -2.31362,7.083141 -2.99846,13.477611 -3.63885,14.927431 -4.6348,10.493141 -0.54133,-2.410191 -0.33571,-4.084951 0.6946,-5.657401 0.88379,-1.34884 1.07974,-2.4709 0.49464,-2.83251 -0.53291,-0.32936 -1.17076,-0.0335 -1.41744,0.6574 -0.24667,0.69093 -0.78336,0.94548 -1.19263,0.56567 -1.03751,-0.96282 -1.40022,-21.847472 -0.36836,-21.209742 1.18374,0.7316 1.05952,-0.007 -0.7699,-4.579461 -1.25017,-3.12448 -2.14142,-4.02024 -4,-4.02024 -1.50161,0 -2.39142,0.58141 -2.39142,1.56258 z m 117.999996,8.288481 c 0,1.56808 1.125,4.966901 2.5,7.552921 1.375,2.58601 2.5,5.283291 2.5,5.993951 0,0.71065 0.9,2.10658 2,3.10207 1.1,0.99549 2,2.65435 2,3.68637 0,1.03202 0.70947,2.14865 1.5766,2.4814 2.57619,0.98857 3.6306,5.159151 2.33261,9.226271 -1.9631,6.151151 -3.07652,6.099811 -2.80033,-0.12913 0.13985,-3.15429 -0.0524,-6.041791 -0.4273,-6.416661 -0.37487,-0.37487 -0.68409,0.63092 -0.68716,2.235081 -0.007,3.40406 -1.74681,10.145601 -2.78461,10.787001 -0.39388,0.24343 -0.64788,-3.227811 -0.56446,-7.713861 0.0834,-4.486061 -0.0422,-6.581471 -0.27926,-4.656471 -0.90183,7.324321 -2.54403,14.000002 -3.44397,14.000002 -0.86047,0 -0.70613,-5.126541 0.58717,-19.502662 0.24752,-2.75146 0.0479,-6.35146 -0.44367,-8 -0.72589,-2.434481 -0.91565,-1.588941 -1.01054,4.50266 -0.11739,7.53559 -1.56096,20.867792 -2.62121,24.208362 -1.22102,3.84709 -2.00322,1.50315 -1.32095,-3.95836 0.39507,-3.162501 0.75629,-13.512502 0.8027,-23.000002 0.0527,-10.777081 0.45962,-17.250002 1.08438,-17.250002 0.55,0 1,1.28298 1,2.85106 z m 5,20.207962 c 0,1.13246 0.43035,1.79305 0.95633,1.46797 0.52598,-0.32507 0.70283,-1.25163 0.39301,-2.05902 -0.79323,-2.06711 -1.34934,-1.82352 -1.34934,0.59105 z M 174.90018,24.001376 c 0.31644,0.512 0.11799,1.213561 -0.44098,1.559021 -0.55897,0.34546 -1.01631,-0.0734 -1.01631,-0.930901 0,-1.75653 0.60006,-2.01516 1.45729,-0.62812 z m -37.17728,5.885051 c 4.61168,6.063971 11.71999,16.833501 11.71999,17.756521 0,0.2935 1.08323,2.127751 2.40717,4.076101 2.41604,3.55552 6.52031,6.35143 9.32363,6.35143 1.25883,0 1.38583,1.09353 0.78393,6.750001 -0.39505,3.7125 -0.92857,7.094841 -1.1856,7.516311 -1.0259,1.68224 -2.4403,-0.64731 -2.14409,-3.531371 0.18599,-1.81099 -0.19716,-3.23775 -0.93572,-3.48439 -0.7941,-0.2652 -1.02884,0.16043 -0.64301,1.16589 0.39904,1.03989 0.056,1.58356 -0.99932,1.58356 -0.88385,0 -1.60699,0.45 -1.60699,1 0,0.55 0.675,1 1.5,1 0.825,0 1.5,0.479581 1.5,1.065741 0,2.29759 -2.16946,4.93426 -4.05993,4.93426 -1.17146,0 -2.35909,0.97192 -2.88822,2.36362 -1.51552,3.986121 -3.76401,3.984261 -4.51216,-0.004 -0.36133,-1.92604 -0.90372,-4.14494 -1.20531,-4.93088 -0.3905,-1.01762 0.2741,-1.46819 2.30863,-1.56517 2.69236,-0.12834 2.71293,-0.16122 0.35699,-0.57074 -1.375,-0.23901 -3.00326,-1.08272 -3.61835,-1.874911 -1.96293,-2.5281 -3.53177,0.5729 -2.35741,4.659671 0.54086,1.88219 0.90828,8.237631 0.81649,14.123201 -0.11639,7.463021 0.2221,11.169741 1.11864,12.249998 1.05833,1.27521 1.034,1.54896 -0.13766,1.54896 -2.09816,0 -6.08542,8.70635 -4.93154,10.76824 0.6481,1.15809 0.4596,1.98675 -0.63382,2.78627 -1.40763,1.02929 -1.406,1.43915 0.0171,4.29173 0.90446,1.81336 1.13527,3.15402 0.54292,3.15402 -0.56669,0 -0.81122,0.57105 -0.54339,1.269 0.26783,0.69795 -0.76151,3.88809 -2.28743,7.0892 -2.49861,5.24167 -2.63924,6.08069 -1.41482,8.44077 1.17888,2.2723 1.14425,2.85849 -0.26057,4.4108 -2.19548,2.42598 -2.97473,2.26238 -4.51321,-0.94754 -0.7217,-1.50577 -2.10507,-2.80997 -3.07417,-2.89821 -1.2418,-0.11307 -1.31336,-0.0212 -0.24238,0.31109 2.48356,0.77066 1.73399,2.8055 -1.4804,4.01879 -2.85881,1.07908 -3.00372,1.00704 -3.07895,-1.53076 -0.0434,-1.46473 -0.30592,-2.10064 -0.58333,-1.41314 -0.27741,0.6875 -1.47939,1.3022 -2.67105,1.366 -1.77528,0.0951 -1.84023,0.2006 -0.35958,0.58432 1.03441,0.26808 1.66622,1.18053 1.47764,2.134 -0.27289,1.37979 -1.35543,1.6065 -6.30708,1.32086 -5.77217,-0.33297 -8.55579,-1.41037 -7.18515,-2.78101 0.36254,-0.36254 1.30498,-0.12319 2.09431,0.53189 0.97819,0.81183 1.64147,0.8572 2.08318,0.1425 1.05553,-1.70789 -0.312,-2.90263 -2.62892,-2.29675 -1.83284,0.4793 -2.0699,0.23123 -1.57769,-1.65098 0.37795,-1.44529 0.1722,-2.08109 -0.59207,-1.8296 -0.64422,0.21198 -1.31511,1.36268 -1.49086,2.5571 -0.36477,2.47894 -0.59027,2.55789 -3.24619,1.13649 -2.182356,-1.16796 -2.574026,-3.58283 -0.684256,-4.21886 0.990486,-0.33337 0.981546,-0.74603 -0.0431,-1.98768 -0.77794,-0.94273 -1.03353,-2.60102 -0.64159,-4.16263 0.40781,-1.62485 0.23691,-2.59565 -0.45694,-2.59565 -0.60963,0 -1.10841,-1.4051 -1.10841,-3.12245 0,-2.48976 0.27036,-2.89807 1.33428,-2.01509 0.73385,0.60905 2.980666,1.31815 4.992926,1.57578 7.37039,0.94364 12.02462,-8.55893 10.31197,-21.05405 -0.71517,-5.21775 0.62387,-6.320677 5.20949,-4.29089 2.77262,1.22728 2.82129,1.35676 1.06998,2.84623 -2.6599,2.26222 -4.04846,21.06047 -1.55566,21.06047 0.90036,0 1.63701,0.4645 1.63701,1.03222 0,1.78525 4.2413,2.69387 8.05545,1.72573 2.82044,-0.7159 4.15883,-1.85455 5.80505,-4.93868 2.47242,-4.63198 2.51258,-4.81927 1.03342,-4.81927 -0.60834,0 -1.991,1.125 -3.07258,2.5 -2.18403,2.77654 -3.5353,2.98476 -9.18655,1.4156 -3.81102,-1.05818 -3.85644,-1.12803 -3.24005,-4.9827 0.8749,-5.47134 3.89391,-10.84673 8.59254,-15.29914 2.207,-2.091337 4.01272,-4.439477 4.01272,-5.218097 0,-2.06769 -0.95574,-1.74166 -3.17866,1.08433 -2.21532,2.816317 -4.36464,3.358197 -3.40544,0.85856 0.53855,-1.40344 0.39802,-1.44902 -0.96922,-0.31431 -1.31901,1.09468 -1.74134,1.09701 -2.41109,0.0133 -0.44659,-0.72259 -1.32881,-0.99439 -1.96048,-0.604 -0.63168,0.3904 -2.95657,0.40434 -5.16643,0.031 -3.00123,-0.50705 -3.93737,-1.09706 -3.6996,-2.3317 0.22829,-1.18544 1.37492,-1.65287 4.05462,-1.65287 2.05496,0 3.7363,-0.3375 3.7363,-0.75 0,-0.4125 -1.35,-0.75 -3,-0.75 -3.12861,0 -4.04959,-1.383261 -1.55766,-2.339501 0.79328,-0.30441 3.01603,-0.2981 4.93944,0.014 4.03547,0.65487 5.80452,3.260161 2.33684,3.441471 -2.03425,0.10636 -2.05241,0.15686 -0.21862,0.60761 1.1,0.27038 2.63568,1.00568 3.41262,1.634 1.0698,0.86515 1.51472,0.83904 1.83333,-0.10761 0.2314,-0.6875 1.05822,-1.25 1.83738,-1.25 0.77917,0 1.41667,-0.675 1.41667,-1.5 0,-0.825 -0.65917,-1.500001 -1.46482,-1.500001 -0.80565,0 -1.91639,-0.84379 -2.46833,-1.87509 -1.12666,-2.10519 -4.76672,-3.41954 -5.62487,-2.03103 -0.99166,1.60454 -4.19348,0.96438 -4.69093,-0.93788 -0.3241,-1.23936 -1.4515,-1.87156 -3.43831,-1.92804 -2.4162,-0.0687 -2.94299,0.31373 -2.88441,2.09399 0.0394,1.19793 -0.43474,2.08425 -1.05369,1.9696 -1.43018,-0.26492 -1.12051,10.446271 0.38325,13.256068 0.58296,1.08926 1.02613,3.09915 0.98483,4.46642 -0.0413,1.36728 0.27349,3.72346 0.69951,5.23596 0.61438,2.18122 0.44192,2.75001 -0.83382,2.75001 -0.88463,0 -2.53968,-0.93127 -3.67789,-2.06948 -1.9245,-1.92451 -2.2373,-1.95954 -4.46482,-0.50001 -3.420146,2.24098 -4.380156,1.95525 -3.966376,-1.18052 0.19958,-1.5125 0.39388,-3.71002 0.43178,-4.88337 0.0406,-1.25598 0.89144,-2.34847 2.068896,-2.65638 2.28771,-0.59825 2.56544,-3.381317 0.59637,-5.976097 -1.228066,-1.6183 -1.390426,-1.51386 -1.943196,1.25 -0.33175,1.65877 -1.06442,3.015897 -1.62817,3.015897 -1.4348,0 -1.14101,-6.803647 0.475,-10.999998 l 1.34784,-3.5 0.13372,3 c 0.12699,2.848881 0.25495,2.748141 2.540436,-2 1.32369,-2.75 2.42275,-5.5074 2.44236,-6.12756 0.0196,-0.62015 0.77184,-1.738541 1.67165,-2.485321 0.8998,-0.74677 2.70861,-3.05687 4.01957,-5.13357 2.31685,-3.670131 2.51595,-3.761041 7.11399,-3.24812 10.00092,1.11563 11.60119,1.81801 13.74599,6.03329 2.8137,5.529901 4.48444,10.642681 4.48444,13.723261 0,1.440991 0.45,2.898101 1,3.238021 1.51132,0.93405 1.21227,-4.646911 -0.51068,-9.530261 -1.69066,-4.791861 -1.35228,-5.925951 1.15239,-3.862241 1.53986,1.268761 1.62485,1.125911 0.95644,-1.6075 -1.20349,-4.9216 -3.06405,-6.94783 -10.51187,-11.447871 -3.89745,-2.35488 -7.08628,-4.67996 -7.08628,-5.16686 0,-0.4869 1.91434,-0.88527 4.25409,-0.88527 3.41399,0 5.18186,0.74056 8.95205,3.75 2.58387,2.0625 4.71953,4.3875 4.7459,5.16667 0.0264,0.779161 0.33187,1.132751 0.67887,0.785751 0.89509,-0.895091 -2.13696,-6.883551 -4.4935,-8.874901 -3.90919,-3.303381 -5.89332,-3.792811 -13.03611,-3.215621 -7.87463,0.63633 -8.87146,-0.26486 -5.1013,-4.6119 1.1,-1.26831 2,-2.68717 2,-3.15301 0,-0.46584 0.9,-0.84699 2,-0.84699 1.1,0 2,0.54 2,1.2 0,0.93333 0.26667,0.93333 1.2,0 1.8066,-1.806601 4.16499,-1.44647 5.60262,0.85555 0.70604,1.13055 2.05178,1.97873 2.99054,1.88484 3.41158,-0.34119 4.2078,0.11719 5.74887,3.30961 3.23581,6.703141 3.91016,7.591641 5.66173,7.459701 2.48288,-0.18703 2.24924,-1.32767 -0.45376,-2.21532 -2.03807,-0.66929 -1.92033,-0.80916 1.25,-1.48499 l 3.5,-0.74611 -3.25,-0.13164 c -1.7875,-0.0724 -3.2875,-0.469141 -3.33333,-0.881641 -0.2884,-2.59557 -0.85737,-5.17887 -1.80247,-8.18377 -1.47452,-4.688131 -0.81567,-4.852471 2.42426,-0.60469 4.48679,5.88248 3.97114,3.238 -0.94907,-4.867241 -2.52417,-4.15814 -4.58939,-7.84802 -4.58939,-8.19972 0,-1.42832 3.40279,2.33116 6.51849,7.20177 1.82355,2.85068 3.89433,5.540761 4.60174,5.977961 1.56444,0.96687 -2.3153,-5.749721 -9.65757,-16.719172 -4.9863,-7.4496 -6.2151,-9.855141 -5.03419,-9.855141 0.23566,0 2.41885,2.617181 4.85154,5.815951 z m 6.34494,25.892432 c -0.31382,0.31382 -0.33125,0.95781 -0.0388,1.4311 0.70205,1.13593 3.4138,1.11012 3.4138,-0.0325 0,-1.10376 -2.59467,-2.17899 -3.37505,-1.39861 z m 12.60712,5.291621 c -1.08459,1.7367 -0.99869,2 0.65247,2 1.57484,0 3.11546,-1.77123 3.11546,-3.581791 0,-1.26199 -2.69976,-0.12862 -3.76793,1.581791 z m -9.23207,3 c 0,0.55 0.45,1 1,1 0.55,0 1,-0.45 1,-1 0,-0.55 -0.45,-1 -1,-1 -0.55,0 -1,0.45 -1,1 z m -2,4 c 0,0.55 0.42344,1 0.94098,1 0.51754,0 1.2191,-0.45 1.55902,-1 0.33992,-0.55 -0.0835,-1 -0.94098,-1 -0.85746,0 -1.55902,0.45 -1.55902,1 z m -34,8.893011 c 0,0.60885 0.60313,1.10699 1.34029,1.10699 0.73716,0 2.53716,1.68215 4,3.738121 1.75902,2.47224 2.65971,3.14952 2.65971,2 0,-0.95597 -0.45,-1.73812 -1,-1.73812 -0.55,0 -1,-1.125 -1,-2.500001 0,-1.49148 -0.57212,-2.5 -1.41821,-2.5 -0.78002,0 -2.13002,-0.27314 -3,-0.60699 -0.86999,-0.33384 -1.58179,-0.10884 -1.58179,0.5 z m 11.66667,0.77366 c -1.25062,1.25061 -0.66987,2.33333 1.25154,2.33333 2.61266,0 5.08179,-1.02374 5.08179,-2.10699 0,-1.03132 -5.33759,-1.22208 -6.33333,-0.22634 z M 104.4582,94.097973 c 0.0211,2.02438 1.72996,4.56057 2.53232,3.75822 0.361,-0.36101 -0.0645,-1.6856 -0.94563,-2.94355 -1.03242,-1.47398 -1.59656,-1.76363 -1.58669,-0.81467 z m 29.65888,8.780027 c -1.70376,1.88263 -1.34045,3.19248 0.88549,3.19248 1.56867,0 2.7751,-3.06522 1.64947,-4.19085 -0.47521,-0.47521 -1.60355,-0.0308 -2.53496,0.99837 z m -12.94001,13.10097 c -0.44695,1.70914 0.10269,2.09447 3.77256,2.6448 5.35561,0.80312 8.71347,-0.16438 8.29041,-2.38872 -0.24206,-1.27271 -1.63759,-1.73426 -5.92819,-1.96062 -4.90538,-0.25881 -5.67745,-0.0443 -6.13478,1.70454 z M 74.942894,26.070477 c 0.33992,0.55 0.14147,1 -0.44098,1 -0.58246,0 -1.05902,-0.45 -1.05902,-1 0,-0.55 0.19844,-1 0.44098,-1 0.24254,0 0.7191,0.45 1.05902,1 z m -1.54451,11.250591 c 0.47918,1.51283 0.49889,3.98783 0.0438,5.5 -0.82004,2.72495 -0.82938,2.71827 -1.04954,-0.75059 -0.1629,-2.5667 -0.33983,-2.88372 -0.66351,-1.18885 -0.24276,1.27113 -1.08148,2.55678 -1.86382,2.85699 -0.78234,0.30021 -1.42244,1.00279 -1.42244,1.56129 0,0.62341 0.53403,0.57225 1.38322,-0.13251 1.06665,-0.88524 1.51719,-0.79883 1.96861,0.37756 0.32197,0.83903 0.32638,2.20052 0.01,3.02552 -0.35297,0.919831 8.3e-4,1.500001 0.91476,1.500001 0.81969,0 1.73755,-0.945281 2.03968,-2.100621 0.79274,-3.03146 2.68123,-1.3456 2.69925,2.409641 0.0218,4.53845 1.21003,5.86698 5.35256,5.9844 2.79419,0.0792 3.63212,0.51863 3.63212,1.90477 0,0.99099 0.24735,1.801811 0.54966,1.801811 1.1017,0 6.45392,-3.071501 6.57929,-3.775681 0.0709,-0.39838 0.27467,-1.84932 0.45277,-3.22432 0.17811,-1.375 0.77435,-4.300001 1.32499,-6.500001 0.85282,-3.40732 0.9397,-2.81465 0.58636,4.000001 -0.22814,4.4 -0.43241,8.1125 -0.45394,8.25 -0.0215,0.1375 -0.51087,0.25 -1.08744,0.25 -0.57657,0 -2.91109,0.900001 -5.18783,2.000001 -4.54327,2.19507 -6.86248,2.49261 -8.31386,1.06661 -0.80157,-0.78755 -6.32483,-1.77051 -11.26286,-2.00442 -0.72207,-0.0342 -1.21541,-0.849691 -1.09631,-1.812191 0.1191,-0.9625 -0.04,-2.425 -0.35362,-3.25 -0.31359,-0.825 -0.8552,-2.7928 -1.203584,-4.37289 -0.599607,-2.719541 -0.709128,-2.772921 -2.05172,-1 -1.280803,1.69132 -1.421383,1.70665 -1.450104,0.15807 -0.01749,-0.943151 0.910606,-2.219171 2.062438,-2.835621 1.414934,-0.75725 1.92556,-1.76584 1.574213,-3.10939 -0.31648,-1.21022 0.270437,-2.77906 1.499467,-4.00809 1.55909,-1.55909 1.87637,-2.78243 1.39171,-5.365911 -0.34528,-1.84053 -0.29355,-4.61086 0.11496,-6.15629 0.70579,-2.67009 0.78421,-2.58601 1.57621,1.69012 0.45841,2.475 1.22552,5.737771 1.70469,7.250591 z M 176.10517,31.320477 c -0.27741,0.6875 -0.50439,0.125 -0.50439,-1.25 0,-1.375 0.22698,-1.9375 0.50439,-1.25 0.27741,0.6875 0.27741,1.8125 0,2.5 z m 0.0373,18.000001 c -0.6744,12.512932 -2.32805,21.750003 -3.89376,21.750003 -0.60816,0 -0.80023,-1.328121 -0.47002,-3.250001 0.30713,-1.7875 0.81833,-5.95 1.136,-9.250001 0.85572,-8.88945 2.73754,-20.500001 3.3226,-20.500001 0.28134,0 0.23867,5.0625 -0.0948,11.25 z M 98.598764,61.19968 c -1.21604,1.16659 -8.28407,3.07594 -8.94391,2.41609 -0.8701,-0.8701 1.62926,-2.45633 5.03804,-3.19742 2.3541,-0.5118 2.76655,-1.119741 2.865,-4.222871 l 0.115,-3.625 0.79086,4 c 0.43498,2.2 0.49573,4.283141 0.13501,4.629201 z m 58.844126,-7.129201 c 0,0.55 -0.19844,1 -0.44098,1 -0.24254,0 -0.7191,-0.45 -1.05902,-1 -0.33992,-0.55 -0.14148,-1 0.44098,-1 0.58246,0 1.05902,0.45 1.05902,1 z m -41.2619,7.690481 c -0.92977,0.92976 -1.97126,1.4097 -2.31443,1.06653 -0.98418,-0.98419 0.52669,-2.75701 2.34963,-2.75701 1.52648,0 1.52374,0.13153 -0.0352,1.69048 z m -11.90822,4.96001 c 0.54552,2.55777 0.75882,5.257771 0.474,6.000001 -0.63222,1.64753 -2.40292,1.80964 -2.05388,0.18804 0.1375,-0.63882 -0.875,-1.49396 -2.25,-1.90032 l -2.499996,-0.738851 2.499996,-0.13009 c 2.11899,-0.11026 2.24537,-0.27867 0.82921,-1.10504 -1.09236,-0.63742 -2.593496,-0.62414 -4.335976,0.0383 -2.02123,0.76848 -2.56595,0.71558 -2.25444,-0.21893 0.2259,-0.67773 1.86243,-1.52913 3.63672,-1.89202 1.774286,-0.36288 3.540646,-1.00158 3.925236,-1.41934 0.68044,-0.73913 -2.743556,-0.27769 -8.314456,1.12052 -2.0708,0.51973 -2.63607,0.35654 -2.29625,-0.66292 0.35722,-1.07165 5.39011,-2.81869 10.978966,-3.81109 0.36796,-0.0653 1.11535,1.97393 1.66087,4.5317 z M 89.974794,66.12209 c 0.2754,0.44561 0.0434,1.09285 -0.51559,1.43831 -0.55897,0.34546 -1.01631,0.15156 -1.01631,-0.4309 0,-0.58246 -0.675,-1.05902 -1.5,-1.05902 -0.825,0 -1.5,-0.40787 -1.5,-0.90638 0,-1.04881 3.78628,-0.24844 4.5319,0.95799 z m -6.5319,11.100691 c 0,0.51608 1.6875,0.69226 3.75,0.39151 2.0625,-0.30076 3.21278,-0.29207 2.55618,0.0193 -0.65661,0.31136 -0.99393,1.09954 -0.74961,1.75151 0.24432,0.65196 -0.691,1.710291 -2.07848,2.351831 -2.36077,1.09157 -2.64999,0.91693 -4.50576,-2.720671 -1.58016,-3.09738 -1.67721,-3.76975 -0.47769,-3.30945 0.82795,0.3177 1.50536,0.99989 1.50536,1.51597 z m 19.999996,-0.1523 c 0,0.55 -0.45,1 -1,1 -0.55,0 -1,-0.45 -1,-1 0,-0.55 0.45,-1 1,-1 0.55,0 1,0.45 1,1 z m -29.625676,2.64473 c -0.61754,2.460491 -0.47954,2.598491 1.98095,1.980951 1.76837,-0.44383 2.64473,-0.26278 2.64473,0.5464 0,0.6656 0.66069,0.33667 1.4682,-0.73095 1.11394,-1.472761 1.47217,-1.579201 1.48468,-0.44113 0.0244,2.21942 -1.45625,4.14802 -2.91952,3.80279 -1.92503,-0.45418 -2.45009,2.10006 -0.57927,2.81797 0.89122,0.34199 2.41978,-0.10163 3.39681,-0.98583 1.28573,-1.16357 2.0785,-1.30552 2.87011,-0.51392 0.79161,0.79161 1.41912,0.48566 2.27184,-1.10765 l 1.17813,-2.20136 2.41451,2.26831 c 2.86782,2.69418 3.27199,6.912191 0.66451,6.935001 -1.28102,0.0112 -1.40741,0.23272 -0.47162,0.82656 0.92736,0.58849 0.58414,1.12755 -1.25,1.96325 -2.75465,1.2551 -3.76774,5.884437 -1.06041,4.84554 1.79575,-0.68909 2.93458,0.892297 1.8719,2.599337 -0.42799,0.6875 -0.6432,2.29411 -0.47825,3.57024 0.30995,2.39783 -3.40729,8.77873 -5.61162,9.63273 -1.58708,0.61486 -1.63194,-1.67102 -0.0636,-3.23939 2.87724,-2.87726 1.32452,-10.21358 -2.16168,-10.21358 -2.45271,0 -2.63312,-2.248767 -0.36257,-4.519317 1.98656,-1.98656 0.45515,-3.42722 -3.21487,-3.02435 -1.92802,0.21164 -2.4464,-0.44398 -3.44222,-4.353581 -0.64481,-2.53151 -1.59865,-5.66696 -2.11965,-6.96766 -1.02797,-2.566351 -0.32935,-6.135091 1.201,-6.135091 0.52965,0 0.65731,1.1728 0.28788,2.64473 z m 12.69961,8.217131 c -0.72694,1.3583 -0.5828,2.37253 0.53295,3.750001 1.43991,1.77768 1.49317,1.71987 0.91045,-0.988341 -0.50127,-2.32966 -0.32411,-2.76335 0.93187,-2.28139 0.96723,0.37116 1.5508,0.04246 1.5508,-0.87351 0,-2.09337 -2.74227,-1.8187 -3.92607,0.39324 z m -7.07393,3.499471 c 0,0.91286 0.82359,1.20389 2.5,0.88342 1.375,-0.26285 2.5,-0.87544 2.5,-1.361331 0,-0.48588 -1.125,-0.88342 -2.5,-0.88342 -1.44237,0 -2.5,0.57591 -2.5,1.361331 z m 18.32411,-10.959102 c 0.62512,1.629051 -0.21476,2.783381 -1.46359,2.011571 -1.13593,-0.70205 -1.11012,-3.413801 0.0325,-3.413801 0.49115,0 1.13515,0.63101 1.4311,1.40223 z m -22.48781,19.295012 c -1.03656,1.248987 -0.93396,1.758177 0.57687,2.862927 1.26827,0.92738 1.59594,1.90087 1.0575,3.14179 -0.72609,1.67336 -0.81215,1.65936 -1.24111,-0.20196 -0.25351,-1.1 -0.91977,-2.2892 -1.48059,-2.64267 -0.56709,-0.35742 -0.72466,-1.81807 -0.355,-3.290887 0.36556,-1.45653 1.12332,-2.36477 1.6839,-2.01831 0.66556,0.41134 0.58174,1.15709 -0.24157,2.14911 z M 145.126,105.25798 c -0.31922,0.79773 -0.55618,0.56078 -0.60416,-0.60417 -0.0434,-1.05416 0.19292,-1.64479 0.52522,-1.3125 0.33229,0.3323 0.36781,1.1948 0.0789,1.91667 z m -49.866686,2.13962 c 0.17403,1.47008 -0.051,2.66937 -0.5,2.66508 -1.07604,-0.0103 -3.2455,-4.72979 -2.51157,-5.46372 1.18677,-1.18677 2.70701,0.22599 3.01157,2.79864 z m -13.23309,0.67288 c 0.77917,0 1.41667,0.45 1.41667,1 0,0.55 -0.87344,1 -1.94098,1 -2.30795,0 -3.46949,-1.52684 -2.43495,-3.20075 0.57744,-0.93432 0.8309,-0.93432 1.14235,0 0.22013,0.66041 1.03775,1.20075 1.81691,1.20075 z m 12.79505,6.75001 c -0.89697,3.73888 -1.17509,3.90296 -2.84258,1.677 -1.2711,-1.69681 -1.24703,-2.07632 0.20146,-3.177 2.56051,-1.94569 3.35895,-1.49222 2.64112,1.5 z m -14.55937,4.3134 c 0.38552,5.32687 -0.36176,4.92685 -1.66955,-0.89371 -0.7078,-3.1502 -0.6565,-4.17351 0.1952,-3.89375 0.63544,0.20873 1.2989,2.36308 1.47435,4.78746 z m 26.576256,-2.29871 c 3.85949,-0.43502 4.65215,-0.25626 4.4055,0.99352 -0.16542,0.83819 -2.30443,2.11493 -4.75335,2.8372 -5.31969,1.56895 -7.047416,0.61064 -7.047416,-3.90898 0,-2.81504 0.11113,-2.9167 1.344496,-1.22998 1.08845,1.48855 2.24075,1.73769 6.05077,1.30824 z m 44.60473,-0.76469 c 0,0.55 -0.45,1 -1,1 -0.55,0 -1,-0.45 -1,-1 0,-0.55 0.45,-1 1,-1 0.55,0 1,0.45 1,1 z m -60.273146,4.99981 c -0.29507,2.19989 -0.12932,4.25145 0.36833,4.55901 0.49765,0.30757 0.90482,1.79265 0.90482,3.30019 0,2.46589 -0.35128,2.74099 -3.5,2.74099 -1.925,0 -3.5,-0.36 -3.5,-0.8 0,-0.44 0.675,-0.8 1.5,-0.8 0.97341,0 1.49462,-0.96542 1.48469,-2.75 -0.0112,-2.0052 -0.25739,-2.36759 -0.90912,-1.33803 -0.64392,1.0172 -1.14542,0.17845 -1.79374,-3 -0.98763,-4.84196 -0.35929,-5.8712 3.59984,-5.89666 2.20306,-0.0142 2.34143,0.28465 1.84518,3.9845 z m -3.71154,-0.30883 c 0.008,0.44496 0.45153,1.48402 0.98469,2.30902 0.8354,1.29268 0.97149,1.26629 0.98469,-0.19099 0.008,-0.93004 -0.43469,-1.96909 -0.98469,-2.30901 -0.55,-0.33992 -0.99311,-0.25398 -0.98469,0.19098 z m -2.75088,3.90678 c 0.90144,0.90144 -0.3398,3.47369 -1.36922,2.83748 -0.49236,-0.3043 -0.89521,-1.20172 -0.89521,-1.99426 0,-1.47259 1.19141,-1.91624 2.26443,-0.84322 z m -3.88287,11.95418 c 0.34149,0.88992 0.17385,1.29132 -0.39301,0.94098 -0.54371,-0.33602 -0.98855,-1.03439 -0.98855,-1.55194 0,-1.43843 0.71677,-1.12146 1.38156,0.61096 z m 46.868436,9.11034 c -0.6875,0.27742 -1.8125,0.27742 -2.5,0 -0.6875,-0.27741 -0.125,-0.50438 1.25,-0.50438 1.375,0 1.9375,0.22697 1.25,0.50438 z M 89.521844,14.653805 c 0.048,1.16495 0.28494,1.4019 0.60416,0.60417 0.28887,-0.72187 0.25335,-1.58437 -0.0789,-1.91667 -0.33229,-0.33229 -0.56864,0.25834 -0.52522,1.3125 z m 46.921046,-1.22083 c 0,0.31782 4.40647,6.234041 6.852,9.199641 0.48173,0.58417 1.70407,2.834171 2.7163,5.000001 1.01224,2.16582 2.64847,4.52588 3.63607,5.24456 0.9876,0.71869 1.79563,1.9086 1.79563,2.644251 0,0.73565 1.35,2.78272 3,4.54905 3.25639,3.48597 4.07782,2.74562 1.25,-1.12662 -0.9625,-1.31799 -2.2,-3.10394 -2.75,-3.968771 -0.55,-0.86484 -2.69747,-4.00967 -4.77216,-6.98852 -2.07469,-2.978851 -5.15079,-7.553591 -6.83578,-10.166092 -1.68498,-2.6125 -3.47501,-4.75 -3.97783,-4.75 -0.50283,0 -0.91423,0.16312 -0.91423,0.3625 z m 6.92742,2.27236 c 1.13992,1.44917 2.09087,3.136671 2.11322,3.750001 0.0412,1.13075 5.95936,8.532531 5.95936,7.453321 0,-0.93853 -5.30483,-10.169422 -6.94687,-12.088182 -2.40081,-2.80541 -3.40659,-2.01481 -1.12571,0.88486 z m 4.67632,-1.04462 c -0.83287,2.17043 0.39545,4.019111 1.50595,2.26652 1.12627,-1.77749 1.12481,-3.85676 -0.003,-3.85676 -0.49116,0 -1.16762,0.71561 -1.50325,1.59024 z m 3.93479,3.00141 c -0.37871,2.525411 -0.42981,4.850411 -0.11355,5.166671 0.91885,0.91885 1.25386,0.0427 1.91501,-5.008321 0.79872,-6.10203 -0.88792,-6.25029 -1.80146,-0.15835 z m 4.5159,0.59015 c -0.61121,2.849981 -1.54087,5.699401 -2.06592,6.332041 -0.622,0.749461 -0.48066,1.798431 0.40565,3.010521 1.21674,1.664 1.49104,1.07503 2.59977,-5.582041 0.68173,-4.093281 1.43854,-7.779821 1.68181,-8.192321 0.24326,-0.4125 0.003,-0.75 -0.53386,-0.75 -0.53688,0 -1.47624,2.33181 -2.08745,5.1818 z m 5.50923,-4.07493 c -0.26587,0.76622 -1.40444,5.179411 -2.53015,9.807081 -1.75473,7.213521 -1.84866,8.640241 -0.6584,10.000001 0.76358,0.87233 1.69688,2.598551 2.074,3.836051 1.11895,3.67181 2.54824,2.56663 2.58651,-2 0.0196,-2.337501 0.67581,-6.931291 1.45825,-10.208421 0.78244,-3.277131 1.22701,-6.154041 0.98792,-6.393131 -0.47477,-0.47476 -0.44635,-0.551 -3.29881,8.851551 -1.92168,6.33444 -1.97422,6.39812 -2.06266,2.5 -0.0499,-2.2 0.58754,-6.877551 1.41658,-10.394551 0.82903,-3.517011 1.28297,-6.618911 1.00875,-6.893131 -0.27421,-0.27422 -0.71611,0.12833 -0.98199,0.89455 z m 10.43634,-0.04785 c 0,0.58246 0.45,0.7809 1,0.44098 0.55,-0.33992 1,-0.81648 1,-1.05902 0,-0.24254 -0.45,-0.44098 -1,-0.44098 -0.55,0 -1,0.47656 -1,1.05902 z m 23.10455,6.546301 c 0.0905,4.674691 0.47816,7.083061 1.00603,6.250001 1.22373,-1.931251 1.11019,-13.855322 -0.13193,-13.855322 -0.61851,0 -0.96327,2.99969 -0.8741,7.605321 z m 3.89545,-2.10532 c 0,3.49071 0.37866,5.38401 1,5 0.55,-0.33992 1,-2.58992 1,-5 0,-2.410081 -0.45,-4.660081 -1,-5.000001 -0.62134,-0.38401 -1,1.50929 -1,5.000001 z m -33.84211,-2.500001 c 0,1.375 0.22698,1.9375 0.50439,1.25 0.27741,-0.6875 0.27741,-1.8125 0,-2.5 -0.27741,-0.6875 -0.50439,-0.125 -0.50439,1.25 z m 37.64523,2.560701 c -0.22863,1.95839 -0.0529,3.78495 0.39059,4.05902 0.44346,0.27407 0.81243,-0.31574 0.81994,-1.3107 0.008,-0.99496 0.285,-2.82152 0.61664,-4.059021 0.33316,-1.24319 0.15227,-2.25 -0.40425,-2.25 -0.55398,0 -1.19429,1.60232 -1.42292,3.560701 z m -22.80312,9.272631 c 0,7.24444 0.39483,12.166671 0.97594,12.166671 1.03658,0 0.66298,-22.694413 -0.39095,-23.748343 -0.32174,-0.32175 -0.58499,4.890011 -0.58499,11.581672 z m 26.67984,-11.124322 c -0.84588,1.36866 0.23188,4.463581 1.32016,3.790991 0.43474,-0.26868 1.07734,0.25915 1.428,1.17296 0.42504,1.10765 0.9709,1.32814 1.63757,0.66147 1.26835,-1.26835 0.14418,-4.334431 -1.58923,-4.334431 -0.72032,0 -1.48979,-0.54034 -1.70992,-1.20075 -0.28614,-0.8584 -0.59593,-0.88413 -1.08658,-0.0902 z M 81.442894,19.070476 c 0,1.1 0.45,2 1,2 0.55,0 1,0.75 1,1.66667 0,0.91666 0.22812,1.43854 0.50694,1.15972 0.79126,-0.79126 -0.65152,-6.826391 -1.63194,-6.826391 -0.48125,0 -0.875,0.9 -0.875,2.000001 z m 86.999996,0.55902 c 0,0.85746 0.45734,1.27636 1.01631,0.9309 0.55897,-0.34546 0.75742,-1.04702 0.44098,-1.55902 -0.85723,-1.387041 -1.45729,-1.128411 -1.45729,0.62812 z m -80.842106,2.44098 c 0,1.375 0.22698,1.9375 0.50439,1.25 0.27741,-0.6875 0.27741,-1.8125 0,-2.5 -0.27741,-0.6875 -0.50439,-0.125 -0.50439,1.25 z m 125.842106,-0.94098 c 0,0.58246 0.45,0.7809 1,0.44098 0.55,-0.33992 1,-0.81648 1,-1.05902 0,-0.24254 -0.45,-0.44098 -1,-0.44098 -0.55,0 -1,0.47656 -1,1.05902 z M 82.442894,27.570477 c 0,0.825 0.45,1.5 1,1.5 0.55,0 1,-0.675 1,-1.5 0,-0.825 -0.45,-1.5 -1,-1.5 -0.55,0 -1,0.675 -1,1.5 z m 85.015306,1.25 c 0.0119,2.14294 0.22931,2.41887 0.98469,1.25 1.26441,-1.95653 1.26441,-4 0,-4 -0.55,0 -0.99311,1.2375 -0.98469,2.75 z m 34.98469,-1.69098 c 0,0.58246 0.45,0.7809 1,0.44098 0.55,-0.33992 1,-0.81648 1,-1.05902 0,-0.24254 -0.45,-0.44098 -1,-0.44098 -0.55,0 -1,0.47656 -1,1.05902 z m -3.21259,3.68998 c -0.32981,1.23696 -0.16196,2.51952 0.373,2.85014 1.39442,0.8618 1.60174,0.24259 0.87021,-2.59914 -0.64051,-2.48814 -0.6464,-2.48933 -1.24321,-0.251 z m -117.708456,1.83433 c 0.048,1.16495 0.28494,1.4019 0.60416,0.60417 0.28887,-0.72187 0.25335,-1.58437 -0.0789,-1.91667 -0.33229,-0.33229 -0.56864,0.25834 -0.52522,1.3125 z m 121.332886,-0.21418 c -0.62261,1.62248 0.38531,11.167041 1.10341,10.448931 0.20087,-0.20087 0.47229,-2.71192 0.60317,-5.58013 0.24564,-5.383351 -0.59205,-7.773231 -1.70658,-4.868801 z m 4.25483,-0.70248 c -1.02514,1.02513 -0.79006,5.139041 0.33333,5.833331 0.59512,0.3678 1,-0.82295 1,-2.940981 0,-3.65458 -0.1802,-4.04549 -1.33333,-2.89235 z M 80.600784,37.070478 c 0,1.375 0.22698,1.9375 0.50439,1.25 0.27741,-0.6875 0.27741,-1.8125 0,-2.5 -0.27741,-0.687501 -0.50439,-0.125 -0.50439,1.25 z m 118.842106,-0.5 c 0,0.825 0.43588,1.5 0.96862,1.5 0.53273,0 0.70959,-0.675 0.39301,-1.5 -0.31659,-0.825 -0.75246,-1.500001 -0.96862,-1.500001 -0.21615,0 -0.39301,0.675001 -0.39301,1.500001 z m -108.448686,4.71914 c -1.74788,10.387891 -1.79592,11.050071 -0.75512,10.406821 1.0786,-0.66661 2.82783,-13.335271 1.96097,-14.202141 -0.26705,-0.26704 -0.80968,1.44085 -1.20585,3.79532 z m 57.636186,-3.15664 c 0.24062,0.72188 1.02812,1.50938 1.75,1.75 0.75,0.25 1.125,-0.125 0.875,-0.875 -0.24063,-0.72187 -1.02813,-1.50937 -1.75,-1.75 -0.75,-0.25 -1.125,0.125 -0.875,0.875 z m 57.8125,3.99652 c 0,1.13246 0.45,1.7809 1,1.44098 0.55,-0.33992 1,-1.26648 1,-2.05902 0,-0.79254 -0.45,-1.44098 -1,-1.44098 -0.55,0 -1,0.92656 -1,2.05902 z m -48.5,3.94098 c 0.33992,0.55 0.81648,1 1.05902,1 0.24254,0 0.44098,-0.45 0.44098,-1 0,-0.55 -0.47656,-1 -1.05902,-1 -0.58246,0 -0.7809,0.45 -0.44098,1 z m 48.5,0.5 c 0,0.825 0.17686,1.5 0.39301,1.5 0.21616,0 0.65203,-0.675 0.96862,-1.5 0.31658,-0.825 0.13972,-1.5 -0.39301,-1.5 -0.53274,0 -0.96862,0.675 -0.96862,1.5 z m -36.5,31.500003 c -0.33992,0.55 -0.14148,1 0.44098,1 0.58246,0 1.05902,-0.45 1.05902,-1 0,-0.55 -0.19844,-1 -0.44098,-1 -0.24254,0 -0.7191,0.45 -1.05902,1 z m -11.39572,1.9219 c -0.81756,0.51328 -1.12333,1.586061 -0.73816,2.589801 0.49306,1.2849 0.98573,1.44118 1.96951,0.62472 0.94956,-0.78807 1.6278,-0.77299 2.45538,0.0546 0.8579,0.8579 1.30732,0.71633 1.79975,-0.56692 0.36097,-0.94069 0.48822,-1.86004 0.28278,-2.042991 -1.15006,-1.02415 -4.56621,-1.41448 -5.76926,-0.6592 z m 7.04572,1.028101 c 0.22,0.66 0.72625,1.16625 1.125,1.125 1.1957,-0.12369 0.96414,-1.495291 -0.325,-1.925001 -0.66,-0.22 -1.02,0.14 -0.8,0.800001 z m -7.45469,8.10715 c -0.43956,1.68086 -0.27999,1.84306 0.87235,0.88669 0.77568,-0.64375 1.16372,-1.56947 0.86231,-2.05715 -0.81588,-1.32013 -1.14067,-1.10098 -1.73466,1.17046 z m 8.30469,5.097841 c 0,2.09164 0.0588,2.10178 2,0.34501 1.1,-0.99549 2,-1.96523 2,-2.15499 0,-0.18975 -0.9,-0.34501 -2,-0.34501 -1.38128,0 -2,0.66667 -2,2.15499 z m -7.08801,0.34501 c -0.0819,0.55 -0.0787,1.38807 0.007,1.86237 0.0857,0.4743 -0.60415,1.41811 -1.53307,2.09736 -2.82041,2.062327 0.12384,2.727087 3.51917,0.79457 3.12137,-1.77659 4.33121,-3.94271 1.62131,-2.90282 -0.81277,0.31189 -1.92021,-0.20067 -2.46959,-1.14301 -0.54783,-0.93966 -1.06302,-1.25847 -1.14487,-0.70847 z m -7.41199,10.499997 c -0.33992,0.55 -0.14148,1 0.44098,1 0.58246,0 1.05902,-0.45 1.05902,-1 0,-0.55 -0.19844,-1 -0.44098,-1 -0.24254,0 -0.7191,0.45 -1.05902,1 z m 10,0 c -0.33992,0.55 0.33508,1 1.5,1 1.16492,0 1.83992,-0.45 1.5,-1 -0.33992,-0.55 -1.01492,-1 -1.5,-1 -0.48508,0 -1.16008,0.45 -1.5,1 z m -6.42105,2.58333 c 0.048,1.16495 0.28494,1.4019 0.60416,0.60417 0.28887,-0.72187 0.25335,-1.58437 -0.0789,-1.91667 -0.3323,-0.33229 -0.56864,0.25834 -0.52522,1.3125 z m 6.27687,1.22104 c -1.88631,1.20797 -2.68435,5.19564 -1.03978,5.19564 0.79794,0 1.68853,-1.2375 1.97908,-2.75001 0.61076,-3.17939 0.53096,-3.38716 -0.9393,-2.44563 z m -7.17739,6.94564 c 0.46666,3.99083 2.28587,5.60706 4.79796,4.26264 2.85416,-1.52751 2.52974,-3.17777 -0.47639,-2.42328 -2.18808,0.54917 -2.5,0.30201 -2.5,-1.98095 0,-1.43463 -0.4822,-2.60841 -1.07157,-2.60841 -0.58936,0 -0.92686,1.2375 -0.75,2.75 z m -5.67843,17.25 c -0.33992,0.55 0.30852,1 1.44098,1 1.13246,0 2.05902,-0.45 2.05902,-1 0,-0.55 -0.64844,-1 -1.44098,-1 -0.79254,0 -1.7191,0.45 -2.05902,1 z M 15.442893,177.5705 c 0,5.59658 0.250593,6.5 1.802987,6.5 1.122353,0 2.555409,-1.55354 3.796136,-4.1153 l 1.993149,-4.11529 1.855738,4.11529 c 1.202417,2.66649 2.50638,4.1153 3.703864,4.1153 1.60795,0 1.848126,-0.84472 1.848126,-6.5 0,-5.11112 -0.320513,-6.5 -1.5,-6.5 -1.115575,0 -1.513206,1.21734 -1.551528,4.75 l -0.05153,4.75 -1.555426,-3.75 c -0.855483,-2.0625 -2.134166,-3.75 -2.841516,-3.75 -0.70735,0 -1.986033,1.6875 -2.841518,3.75 l -1.555426,3.75 -0.05153,-4.75 c -0.03832,-3.53266 -0.435951,-4.75 -1.551526,-4.75 -1.179487,0 -1.5,1.38888 -1.5,6.5 z m 18.571429,-4.92858 c -3.216478,3.21648 -0.787112,8.42858 3.928571,8.42858 2.824184,0 5.5,-2.43256 5.5,-5 0,-2.56744 -2.675816,-5 -5.5,-5 -1.296429,0 -3.064286,0.70714 -3.928571,1.57142 z m 5.928571,3.42858 c 0,2.85062 -3.156276,4.0593 -4.110013,1.5739 -0.909796,-2.37089 0.377503,-4.76533 2.356989,-4.38412 1.107023,0.2132 1.753024,1.24878 1.753024,2.81022 z m 5.5,-0.1 v 4.9 h 3.5 c 3.808104,0 4.706268,-1.25129 1.5,-2.08975 -1.531946,-0.40062 -2,-1.36402 -2,-4.11663 0,-2.52767 -0.444938,-3.59362 -1.5,-3.59362 -1.129252,0 -1.5,1.21111 -1.5,4.9 z m 9.624379,-3.38153 c -3.265124,3.26513 -0.881498,8.48153 3.875621,8.48153 2.630021,0 5.5,-2.38544 5.5,-4.57143 0,-1.00346 -1.207869,-1.42857 -4.059017,-1.42857 -2.687527,0 -3.830224,-0.3702 -3.381888,-1.09562 0.37242,-0.60259 2.206657,-0.91705 4.07608,-0.69881 2.086165,0.24355 3.265948,-0.009 3.054589,-0.65438 -0.589006,-1.79798 -7.27599,-1.82211 -9.065385,-0.0327 z m 5.875621,5.48153 c -0.339919,0.55 -1.239919,1 -2,1 -0.760081,0 -1.660081,-0.45 -2,-1 -0.351909,-0.56941 0.509288,-1 2,-1 1.490712,0 2.351909,0.43059 2,1 z m 5.5,-2.13637 v 4.86364 l 4.250001,0.009 c 4.90681,0.0102 5.71364,-0.83203 5.73469,-5.98617 0.0109,-2.67348 -0.4153,-3.75 -1.48469,-3.75 -1.08783,0 -1.5,1.11925 -1.5,4.07332 0,3.33903 -0.31547,4.01354 -1.75,3.74168 -1.22302,-0.23177 -1.84346,-1.45837 -2.06037,-4.07332 -0.20287,-2.44582 -0.80895,-3.74168 -1.75,-3.74168 -1.055509,0 -1.439631,1.2977 -1.439631,4.86363 z m 13.571431,-3.29221 c -3.21648,3.21648 -0.78711,8.42858 3.92857,8.42858 2.82418,0 5.5,-2.43256 5.5,-5 0,-2.56744 -2.67582,-5 -5.5,-5 -1.29643,0 -3.06429,0.70714 -3.92857,1.57142 z m 5.92857,3.42858 c 0,1.56143 -0.646,2.59701 -1.75302,2.81021 -1.97949,0.38121 -3.26679,-2.01323 -2.35699,-4.38412 0.95373,-2.4854 4.11001,-1.27672 4.11001,1.57391 z m 13.16667,-4.33334 c -0.36667,0.36667 -0.66667,2.12917 -0.66667,3.91667 0,1.7875 -0.5625,3.5125 -1.25,3.83333 -1,0.46667 -1,0.7 0,1.16667 0.6875,0.32083 1.25,1.22083 1.25,2 0,0.77917 0.675,1.41667 1.5,1.41667 0.824996,0 1.499996,-0.675 1.499996,-1.5 0,-0.825 0.675,-1.5 1.5,-1.5 0.825,0 1.5,-0.45 1.5,-1 0,-0.55 -0.675,-1 -1.5,-1 -1,0 -1.5,-1 -1.5,-3 0,-2 0.5,-3 1.5,-3 0.825,0 1.5,-0.45 1.5,-1 0,-1.11229 -4.28648,-1.38019 -5.333326,-0.33334 z m 7.333326,4.33334 c 0,3.77777 0.36667,5 1.5,5 1.13333,0 1.5,-1.22223 1.5,-5 0,-3.77778 -0.36667,-5 -1.5,-5 -1.13333,0 -1.5,1.22222 -1.5,5 z m 6.62438,-3.48153 c -3.26513,3.26513 -0.8815,8.48153 3.87562,8.48153 2.63002,0 5.5,-2.38544 5.5,-4.57143 0,-1.00346 -1.20787,-1.42857 -4.05902,-1.42857 -2.68752,0 -3.83022,-0.3702 -3.38189,-1.09562 0.37243,-0.60259 2.20666,-0.91705 4.07609,-0.69881 2.08616,0.24355 3.26594,-0.009 3.05458,-0.65438 -0.589,-1.79798 -7.27599,-1.82211 -9.06538,-0.0327 z m 5.87562,5.48153 c -0.33992,0.55 -1.23992,1 -2,1 -0.76008,0 -1.66008,-0.45 -2,-1 -0.35191,-0.56941 0.50929,-1 2,-1 1.49071,0 2.35191,0.43059 2,1 z m 5.5,-2.13637 v 4.86364 l 4.25,0.009 c 4.90681,0.0102 5.71364,-0.83198 5.73469,-5.98612 0.0109,-2.67348 -0.4153,-3.75 -1.48469,-3.75 -1.08783,0 -1.5,1.11925 -1.5,4.07332 0,3.33903 -0.31547,4.01354 -1.75,3.74168 -1.22302,-0.23177 -1.84346,-1.45837 -2.06037,-4.07332 -0.20287,-2.44587 -0.80895,-3.74173 -1.75,-3.74173 -1.05551,0 -1.43963,1.2977 -1.43963,4.86363 z m 13.62438,-3.34516 c -3.26513,3.26513 -0.8815,8.48153 3.87562,8.48153 2.63002,0 5.5,-2.38544 5.5,-4.57143 0,-1.00346 -1.20787,-1.42857 -4.05902,-1.42857 -2.68752,0 -3.83022,-0.3702 -3.38189,-1.09562 0.37243,-0.60259 2.20666,-0.91705 4.07609,-0.69881 2.08616,0.24355 3.26594,-0.009 3.05458,-0.65438 -0.589,-1.79798 -7.27599,-1.82211 -9.06538,-0.0327 z m 5.87562,5.48153 c -0.33992,0.55 -1.23992,1 -2,1 -0.76008,0 -1.66008,-0.45 -2,-1 -0.35191,-0.56941 0.50929,-1 2,-1 1.49071,0 2.35191,0.43059 2,1 z m 12.12572,-5.48287 c -3.3969,3.3969 -0.64469,8.86268 4.17288,8.28716 3.49486,-0.41751 3.88691,-2.39487 0.46489,-2.34476 -2.29185,0.0336 -2.76349,-0.38621 -2.76349,-2.45953 0,-2.07333 0.47164,-2.4931 2.76349,-2.45954 1.51992,0.0223 2.61022,-0.42774 2.42288,-1 -0.56913,-1.73854 -5.32971,-1.75427 -7.06065,-0.0233 z m 10.94571,0.0543 c -3.21648,3.21648 -0.78711,8.42858 3.92857,8.42858 2.82418,0 5.5,-2.43256 5.5,-5 0,-2.56744 -2.67582,-5 -5.5,-5 -1.29643,0 -3.06429,0.70714 -3.92857,1.57142 z m 5.92857,3.42858 c 0,1.56143 -0.646,2.59701 -1.75302,2.81021 -1.97949,0.38121 -3.26679,-2.01323 -2.35699,-4.38412 0.95373,-2.4854 4.11001,-1.27672 4.11001,1.57391 z m 5.5,-0.1 v 4.9 h 3.5 c 3.8081,0 4.70627,-1.25129 1.5,-2.08975 -1.53195,-0.40062 -2,-1.36402 -2,-4.11663 0,-2.52767 -0.44494,-3.59362 -1.5,-3.59362 -1.12925,0 -1.5,1.21111 -1.5,4.9 z m 9,0.1 c 0,3.77777 0.36667,5 1.5,5 1.13333,0 1.5,-1.22223 1.5,-5 0,-3.77778 -0.36667,-5 -1.5,-5 -1.13333,0 -1.5,1.22222 -1.5,5 z m 6,2 c 0,5.55555 0.30952,7 1.5,7 1.19048,0 1.5,-1.44445 1.5,-7 0,-5.55556 -0.30952,-7 -1.5,-7 -1.19048,0 -1.5,1.44444 -1.5,7 z m 6,0 c 0,5.55555 0.30952,7 1.5,7 1.19048,0 1.5,-1.44445 1.5,-7 0,-5.55556 -0.30952,-7 -1.5,-7 -1.19048,0 -1.5,1.44444 -1.5,7 z m 6.57143,-5.42858 c -3.21648,3.21648 -0.78711,8.42858 3.92857,8.42858 2.82418,0 5.5,-2.43256 5.5,-5 0,-2.56744 -2.67582,-5 -5.5,-5 -1.29643,0 -3.06429,0.70714 -3.92857,1.57142 z m 5.92857,3.42858 c 0,2.85062 -3.15628,4.0593 -4.11001,1.5739 -0.9098,-2.37089 0.3775,-4.76533 2.35699,-4.38412 1.10702,0.2132 1.75302,1.24878 1.75302,2.81022 z m -105.5,7.5 c 0,0.825 0.675,1.5 1.5,1.5 0.825,0 1.5,-0.675 1.5,-1.5 0,-0.825 -0.675,-1.5 -1.5,-1.5 -0.825,0 -1.5,0.675 -1.5,1.5 z m 81,0 c 0,0.825 0.675,1.5 1.5,1.5 0.825,0 1.5,-0.675 1.5,-1.5 0,-0.825 -0.675,-1.5 -1.5,-1.5 -0.825,0 -1.5,0.675 -1.5,1.5 z"
       id="path3813"
       inkscape:connector-curvature="0" /><rect
       id="rect4622"
       width="231.60146"
       height="196.55649"
       x="5.0789795"
       y="-203.66708"
       transform="scale(1,-1)"
       style="stroke-width:7.50000019;fill:none;stroke:#000000;stroke-opacity:1;stroke-miterlimit:4;stroke-dasharray:none;stroke-linejoin:round" /></g></svg>